<svg width="25" height="19" viewBox="0 0 25 19" fill="none" xmlns="http://www.w3.org/2000/svg">
<path d="M21.1634 1.57579C19.5697 0.847503 17.8614 0.309205 16.075 0.00311386C16.0591 1.90852e-05 16.0427 0.00201347 16.0279 0.00882123C16.0132 0.015629 16.0009 0.0269133 15.9927 0.0411114C15.774 0.430586 15.5303 0.938275 15.3594 1.33936C13.4648 1.05252 11.5386 1.05252 9.64397 1.33936C9.4537 0.894853 9.23914 0.461432 9.00128 0.0411114C8.99322 0.0267385 8.98102 0.0151989 8.96632 0.00803256C8.95162 0.0008662 8.93511 -0.0015862 8.91899 0.00100279C7.13363 0.307094 5.42534 0.845392 3.8306 1.57473C3.81688 1.58056 3.80525 1.59051 3.79727 1.60323C0.555693 6.43208 -0.332823 11.1417 0.103623 15.7921C0.104837 15.8035 0.108326 15.8145 0.113877 15.8245C0.119429 15.8345 0.126926 15.8432 0.135913 15.8502C2.02793 17.246 4.13823 18.3093 6.37844 18.9955C6.39406 19.0004 6.41076 19.0004 6.42637 18.9955C6.44198 18.9906 6.45577 18.981 6.46594 18.9681C6.948 18.3148 7.37518 17.6218 7.74299 16.8962C7.74809 16.8862 7.75103 16.8753 7.75161 16.8642C7.75219 16.853 7.7504 16.8418 7.74635 16.8314C7.7423 16.821 7.73609 16.8116 7.72814 16.8038C7.72019 16.7961 7.71069 16.7901 7.70028 16.7864C7.02739 16.5296 6.3754 16.2198 5.75033 15.8597C5.7391 15.8532 5.72964 15.844 5.72279 15.8328C5.71594 15.8217 5.71193 15.8091 5.7111 15.796C5.71027 15.7829 5.71266 15.7698 5.71806 15.7579C5.72345 15.746 5.73168 15.7356 5.742 15.7277C5.87325 15.6296 6.00449 15.5272 6.12949 15.4248C6.14074 15.4156 6.15429 15.4098 6.16864 15.4079C6.18298 15.406 6.19756 15.4082 6.21074 15.4143C10.3012 17.2761 14.7313 17.2761 18.7739 15.4143C18.7871 15.4079 18.8019 15.4054 18.8164 15.4071C18.831 15.4087 18.8447 15.4145 18.8562 15.4238C18.9812 15.5272 19.1114 15.6296 19.2437 15.7277C19.2541 15.7355 19.2625 15.7457 19.268 15.7575C19.2736 15.7693 19.2762 15.7823 19.2756 15.7954C19.275 15.8085 19.2712 15.8212 19.2645 15.8324C19.2578 15.8436 19.2485 15.853 19.2374 15.8597C18.6145 16.2228 17.9666 16.5299 17.2865 16.7853C17.276 16.7892 17.2665 16.7952 17.2585 16.8031C17.2506 16.811 17.2444 16.8205 17.2403 16.831C17.2363 16.8415 17.2345 16.8527 17.2351 16.8639C17.2357 16.8752 17.2386 16.8862 17.2438 16.8962C17.6187 17.6213 18.0479 18.3116 18.5198 18.967C18.5296 18.9805 18.5432 18.9905 18.5589 18.9958C18.5746 19.0011 18.5914 19.0014 18.6073 18.9966C20.8513 18.3123 22.965 17.2485 24.8592 15.8502C24.8684 15.8436 24.8762 15.8352 24.8819 15.8253C24.8877 15.8155 24.8913 15.8045 24.8925 15.7932C25.4133 10.4165 24.0196 5.74496 21.1957 1.60534C21.1888 1.59189 21.1773 1.5814 21.1634 1.57579ZM8.35443 12.9603C7.12321 12.9603 6.10762 11.8319 6.10762 10.4482C6.10762 9.06341 7.10342 7.93615 8.35443 7.93615C9.61481 7.93615 10.621 9.07291 10.6012 10.4482C10.6012 11.833 9.60543 12.9603 8.35443 12.9603ZM16.6615 12.9603C15.4292 12.9603 14.4147 11.8319 14.4147 10.4482C14.4147 9.06341 15.4094 7.93615 16.6615 7.93615C17.9219 7.93615 18.9281 9.07291 18.9083 10.4482C18.9083 11.833 17.9229 12.9603 16.6615 12.9603Z" fill="black"/>
</svg>
