<svg width="30" height="29" viewBox="0 0 30 29" fill="none" xmlns="http://www.w3.org/2000/svg">
<path d="M7.5 0.90625C7.5 0.665898 7.40123 0.435389 7.22541 0.265435C7.0496 0.0954797 6.81114 0 6.5625 0C6.31386 0 6.0754 0.0954797 5.89959 0.265435C5.72377 0.435389 5.625 0.665898 5.625 0.90625V1.8125H3.75C2.75544 1.8125 1.80161 2.19442 1.09835 2.87424C0.395088 3.55406 0 4.47609 0 5.4375L0 7.25H30V5.4375C30 4.47609 29.6049 3.55406 28.9016 2.87424C28.1984 2.19442 27.2446 1.8125 26.25 1.8125H24.375V0.90625C24.375 0.665898 24.2762 0.435389 24.1004 0.265435C23.9246 0.0954797 23.6861 0 23.4375 0C23.1889 0 22.9504 0.0954797 22.7746 0.265435C22.5988 0.435389 22.5 0.665898 22.5 0.90625V1.8125H7.5V0.90625ZM30 25.375V9.0625H0V25.375C0 26.3364 0.395088 27.2584 1.09835 27.9383C1.80161 28.6181 2.75544 29 3.75 29H26.25C27.2446 29 28.1984 28.6181 28.9016 27.9383C29.6049 27.2584 30 26.3364 30 25.375ZM23.4375 12.6875H25.3125C25.5611 12.6875 25.7996 12.783 25.9754 12.9529C26.1512 13.1229 26.25 13.3534 26.25 13.5938V15.4062C26.25 15.6466 26.1512 15.8771 25.9754 16.0471C25.7996 16.217 25.5611 16.3125 25.3125 16.3125H23.4375C23.1889 16.3125 22.9504 16.217 22.7746 16.0471C22.5988 15.8771 22.5 15.6466 22.5 15.4062V13.5938C22.5 13.3534 22.5988 13.1229 22.7746 12.9529C22.9504 12.783 23.1889 12.6875 23.4375 12.6875Z" fill="black"/>
</svg>
