<svg width="321" height="48" viewBox="0 0 321 48" fill="none" xmlns="http://www.w3.org/2000/svg">
<path d="M90.37 39V34.205H77.56V28.675H88.795V24.02H77.56V18.945H90.09V14.15H71.75V39H90.37ZM106.794 39L115.299 14.15H109.209L103.644 32.42L98.079 14.15H91.779L100.249 39H106.794ZM127.325 39.455C134.955 39.455 139.68 34.17 139.68 26.925V26.225C139.68 18.98 134.955 13.695 127.325 13.695C119.73 13.695 115.005 18.98 115.005 26.225V26.925C115.005 34.17 119.73 39.455 127.325 39.455ZM127.325 34.59C123.37 34.59 121.13 31.615 121.13 26.925V26.225C121.13 21.535 123.3 18.56 127.325 18.56C131.35 18.56 133.555 21.535 133.555 26.225V26.925C133.555 31.615 131.35 34.59 127.325 34.59ZM157.903 39V34.205H148.383V14.15H142.468V39H157.903ZM170.232 39L178.737 14.15H172.647L167.082 32.42L161.517 14.15H155.217L163.687 39H170.232ZM199.403 39V34.205H186.593V28.675H197.828V24.02H186.593V18.945H199.123V14.15H180.783V39H199.403ZM219.251 39.42C222.576 39.42 225.481 37.74 226.636 35.395L227.021 39H229.541V26.015H219.076V28.57H226.741V29.725C226.741 33.12 224.501 36.76 219.286 36.76C214.246 36.76 211.131 32.77 211.131 27.065V26.085C211.131 20.38 214.176 16.39 219.391 16.39C223.136 16.39 225.866 18.525 226.496 22.2H229.506C228.841 17.16 224.921 13.73 219.426 13.73C212.636 13.73 208.051 18.805 208.051 26.085V27.065C208.051 34.45 212.566 39.42 219.251 39.42ZM236.331 39V29.375C236.331 25.455 238.536 23.46 241.791 23.46C242.176 23.46 242.421 23.46 242.806 23.495V20.695C242.456 20.625 242.141 20.625 241.861 20.625C239.376 20.625 237.381 22.025 236.296 24.51L236.261 21.045H233.531V39H236.331ZM252.579 39.42C257.794 39.42 261.119 35.85 261.119 30.355V29.69C261.119 24.195 257.794 20.625 252.579 20.625C247.364 20.625 244.074 24.195 244.074 29.69V30.355C244.074 35.85 247.364 39.42 252.579 39.42ZM252.579 37.04C248.939 37.04 246.944 34.555 246.944 30.355V29.69C246.944 25.49 248.939 23.005 252.579 23.005C256.254 23.005 258.249 25.49 258.249 29.69V30.355C258.249 34.555 256.254 37.04 252.579 37.04ZM270.676 39L274.841 24.895L279.076 39H282.051L287.651 21.045H284.816L280.581 35.675L276.241 21.045H273.476L269.206 35.57L265.006 21.045H262.171L267.666 39H270.676ZM298.029 39.42C298.799 39.42 299.919 39.245 300.654 39.07V36.69C300.059 36.865 299.079 37.04 298.379 37.04C296.034 37.04 295.369 36.095 295.369 34.1V23.285H300.514V21.045H295.369V15.515H292.569V21.045H288.964V23.285H292.569V34.485C292.569 37.775 294.459 39.42 298.029 39.42ZM306.604 39V28.815C306.604 25.245 308.634 23.04 311.679 23.04C314.619 23.04 315.879 24.825 315.879 28.045V39H318.644V27.38C318.644 23.25 316.684 20.625 312.414 20.625C309.579 20.625 307.654 21.99 306.604 23.915V13.1H303.804V39H306.604Z" fill="black"/>
<path d="M0 28.4918V38.7891H10.3125L27.5038 21.6165L44.6875 38.7891H55V28.4833L27.499 1L6.87596 21.6174L0 28.4918Z" fill="#1D1D1D"/>
<path fill-rule="evenodd" clip-rule="evenodd" d="M27.5042 18.0905L45.7202 36.2948H52.5057V29.5169L27.4994 4.52671L8.63951 23.3814L2.49433 29.5252V36.2948H9.28011L27.5042 18.0905ZM10.3125 38.7891H0V28.4918L27.499 1L55 28.4833V38.7891H44.6875L27.5038 21.6165L10.3125 38.7891Z" fill="#1D1D1D"/>
<path fill-rule="evenodd" clip-rule="evenodd" d="M47.5957 13.5967V1.125H50.09V13.5967H47.5957Z" fill="#0D1520" stroke="#1D1D1D"/>
<path fill-rule="evenodd" clip-rule="evenodd" d="M55 8.68457L42.5283 8.68457L42.5283 6.19024L55 6.19024L55 8.68457Z" fill="#0D1520" stroke="#1D1D1D"/>
</svg>
