<svg width="987" height="101" viewBox="0 0 987 101" fill="none" xmlns="http://www.w3.org/2000/svg">
<path d="M244.932 99.216V80.4158H194.757V58.7337H238.763V40.4823H194.757V20.5842H243.835V1.78397H172V99.216H244.932Z" fill="black"/>
<path d="M309.263 99.216L342.576 1.78397H318.722L296.924 73.4171L275.127 1.78397H250.451L283.627 99.216H309.263Z" fill="black"/>
<path d="M389.68 101C419.566 101 438.073 80.2785 438.073 51.8723V49.1277C438.073 20.7215 419.566 0 389.68 0C359.931 0 341.424 20.7215 341.424 49.1277V51.8723C341.424 80.2785 359.931 101 389.68 101ZM389.68 81.9253C374.189 81.9253 365.415 70.2609 365.415 51.8723V49.1277C365.415 30.7391 373.915 19.0747 389.68 19.0747C405.445 19.0747 414.082 30.7391 414.082 49.1277V51.8723C414.082 70.2609 405.445 81.9253 389.68 81.9253Z" fill="black"/>
<path d="M509.449 99.216V80.4158H472.16V1.78397H448.992V99.216H509.449Z" fill="black"/>
<path d="M557.739 99.216L591.051 1.78397H567.198L545.4 73.4171L523.603 1.78397H498.927L532.103 99.216H557.739Z" fill="black"/>
<path d="M672 99.216V80.4158H621.825V58.7337H665.831V40.4823H621.825V20.5842H670.903V1.78397H599.068V99.216H672Z" fill="black"/>
<path d="M757.782 99.3883V13.9681H787.259V4.02925H717V13.9681H746.342V99.3883H757.782Z" fill="black"/>
<path d="M815.227 101C831.648 101 842.685 92.5386 846.049 78.0332H835.147C832.859 86.8976 826.129 91.867 815.227 91.867C801.768 91.867 793.692 83.0027 793.423 67.02H846.453C847.395 43.9189 837.032 28.8763 815.093 28.8763C794.634 28.8763 782.386 43.113 782.386 63.6622V66.2141C782.386 86.629 794.365 101 815.227 101ZM793.692 58.2899C795.172 45.1277 802.71 38.0093 815.093 38.0093C827.341 38.0093 834.07 45.5306 835.147 58.2899H793.692Z" fill="black"/>
<path d="M888.026 101C904.581 101 915.349 91.3298 917.906 76.0186H907.139C905.254 85.5545 898.794 91.867 888.026 91.867C874.432 91.867 867.029 82.4654 867.029 66.2141V63.6622C867.029 47.4109 874.432 38.0093 887.892 38.0093C898.794 38.0093 904.851 43.9189 906.735 53.4548H917.503C915.618 38.6809 904.851 28.8763 888.161 28.8763C867.568 28.8763 855.993 43.113 855.993 63.6622V66.2141C855.993 86.629 867.568 101 888.026 101Z" fill="black"/>
<path d="M940.699 99.3883V60.3045C940.699 46.6051 948.506 38.1436 960.216 38.1436C971.522 38.1436 976.367 44.9934 976.367 57.3497V99.3883H987V54.7979C987 38.9495 979.463 28.8763 963.042 28.8763C952.14 28.8763 944.737 34.1144 940.699 41.5013V0H929.932V99.3883H940.699Z" fill="black"/>
<path d="M0 73.4782V101H27.9375L74.5103 55.1023L121.062 101H149V73.4552L74.4974 0L18.6276 55.1048L0 73.4782Z" fill="#1D1D1D"/>
<path fill-rule="evenodd" clip-rule="evenodd" d="M74.5119 40.9662L125.259 91H138.864V77.5993L74.4987 14.1389L25.794 62.1767L10.1361 77.621V91H23.7422L74.5119 40.9662ZM27.9375 101H0V73.4782L74.4974 0L149 73.4552V101H121.062L74.5103 55.1023L27.9375 101Z" fill="#1D1D1D"/>
<path fill-rule="evenodd" clip-rule="evenodd" d="M10.1309 46.6667V21H16.8882V46.6667H10.1309Z" fill="#1D1D1D"/>
<path fill-rule="evenodd" clip-rule="evenodd" d="M26.3538 37.3252L0.337891 37.3252L0.33789 30.6585L26.3538 30.6585L26.3538 37.3252Z" fill="#1D1D1D"/>
</svg>
