<svg width="280" height="47" viewBox="0 0 280 47" fill="none" xmlns="http://www.w3.org/2000/svg">
<path d="M90.37 38V33.205H77.56V27.675H88.795V23.02H77.56V17.945H90.09V13.15H71.75V38H90.37ZM106.794 38L115.299 13.15H109.209L103.644 31.42L98.079 13.15H91.779L100.249 38H106.794ZM127.325 38.455C134.955 38.455 139.68 33.17 139.68 25.925V25.225C139.68 17.98 134.955 12.695 127.325 12.695C119.73 12.695 115.005 17.98 115.005 25.225V25.925C115.005 33.17 119.73 38.455 127.325 38.455ZM127.325 33.59C123.37 33.59 121.13 30.615 121.13 25.925V25.225C121.13 20.535 123.3 17.56 127.325 17.56C131.35 17.56 133.555 20.535 133.555 25.225V25.925C133.555 30.615 131.35 33.59 127.325 33.59ZM157.903 38V33.205H148.383V13.15H142.468V38H157.903ZM170.232 38L178.737 13.15H172.647L167.082 31.42L161.517 13.15H155.217L163.687 38H170.232ZM199.403 38V33.205H186.593V27.675H197.828V23.02H186.593V17.945H199.123V13.15H180.783V38H199.403ZM217.886 38V15.74H225.551V13.15H207.281V15.74H214.911V38H217.886ZM232.824 38.42C237.094 38.42 239.964 36.215 240.839 32.435H238.004C237.409 34.745 235.659 36.04 232.824 36.04C229.324 36.04 227.224 33.73 227.154 29.565H240.944C241.189 23.545 238.494 19.625 232.789 19.625C227.469 19.625 224.284 23.335 224.284 28.69V29.355C224.284 34.675 227.399 38.42 232.824 38.42ZM227.224 27.29C227.609 23.86 229.569 22.005 232.789 22.005C235.974 22.005 237.724 23.965 238.004 27.29H227.224ZM251.755 38.42C256.06 38.42 258.86 35.9 259.525 31.91H256.725C256.235 34.395 254.555 36.04 251.755 36.04C248.22 36.04 246.295 33.59 246.295 29.355V28.69C246.295 24.455 248.22 22.005 251.72 22.005C254.555 22.005 256.13 23.545 256.62 26.03H259.42C258.93 22.18 256.13 19.625 251.79 19.625C246.435 19.625 243.425 23.335 243.425 28.69V29.355C243.425 34.675 246.435 38.42 251.755 38.42ZM265.452 38V27.815C265.452 24.245 267.482 22.04 270.527 22.04C273.467 22.04 274.727 23.825 274.727 27.045V38H277.492V26.38C277.492 22.25 275.532 19.625 271.262 19.625C268.427 19.625 266.502 20.99 265.452 22.915V12.1H262.652V38H265.452Z" fill="black"/>
<path d="M0 27.3677V37.6185H10.2659L27.3796 20.5234L44.4858 37.6185H54.7517V27.3592L27.3749 0L6.84491 20.5244L0 27.3677Z" fill="#1D1D1D"/>
<path fill-rule="evenodd" clip-rule="evenodd" d="M27.38 17.0133L45.5138 35.1354H52.2686V28.3882L27.3752 3.51079L8.60051 22.2804L2.48307 28.3964V35.1354H9.23821L27.38 17.0133ZM10.2659 37.6185H0V27.3677L27.3749 0L54.7517 27.3592V37.6185H44.4858L27.3796 20.5234L10.2659 37.6185Z" fill="#1D1D1D"/>
<path fill-rule="evenodd" clip-rule="evenodd" d="M46.6727 0H50.9116L54.9998 4.01111V8.40424L50.9116 12.4153H46.6727L42.5845 8.40424V4.01111L46.6727 0ZM50.0337 1.21811H47.5506V3.65433H50.0337V1.21811ZM51.2752 2.07944L52.8804 3.65433H51.2752V2.07944ZM50.0337 4.87244H47.5506V7.54291H50.0337V4.87244ZM51.2752 7.54291V4.87244H53.7583V7.54291H51.2752ZM50.0337 8.76102H47.5506V11.1972H50.0337V8.76102ZM51.2752 10.3359V8.76102H52.8804L51.2752 10.3359ZM46.3091 10.3359V8.76102H44.7039L46.3091 10.3359ZM43.826 7.54291V4.87244H46.3091V7.54291H43.826ZM46.3091 3.65433V2.07944L44.7039 3.65433H46.3091Z" fill="#0D1520"/>
</svg>
