<svg width="1142" height="101" viewBox="0 0 1142 101" fill="none" xmlns="http://www.w3.org/2000/svg">
<path d="M0 73.4782V101H27.9375L74.5103 55.1023L121.062 101H149V73.4552L74.4974 0L18.6276 55.1048L0 73.4782Z" fill="#1D1D1D"/>
<path fill-rule="evenodd" clip-rule="evenodd" d="M74.5119 40.9662L125.259 91H138.864V77.5993L74.4987 14.1389L25.794 62.1767L10.1361 77.621V91H23.7422L74.5119 40.9662ZM27.9375 101H0V73.4782L74.4974 0L149 73.4552V101H121.062L74.5103 55.1023L27.9375 101Z" fill="#1D1D1D"/>
<path fill-rule="evenodd" clip-rule="evenodd" d="M8.85177 20.5039H18.0297L26.8814 28.8456V37.9818L18.0297 46.3235H8.85177L0 37.9818V28.8456L8.85177 20.5039ZM16.1289 23.0371H10.7526V28.1036H16.1289V23.0371ZM18.817 24.8284L22.2925 28.1036H18.817V24.8284ZM16.1289 30.6369H10.7526V36.1905H16.1289V30.6369ZM18.817 36.1905V30.6369H24.1933V36.1905H18.817ZM16.1289 38.7237H10.7526V43.7902H16.1289V38.7237ZM18.817 41.9989V38.7237H22.2925L18.817 41.9989ZM8.06443 41.9989V38.7237H4.58895L8.06443 41.9989ZM2.68814 36.1905V30.6369H8.06443V36.1905H2.68814ZM8.06443 28.1036V24.8284L4.58895 28.1036H8.06443Z" fill="#1D1D1D"/>
<path d="M244.932 99.216V80.4158H194.757V58.7337H238.763V40.4823H194.757V20.5842H243.835V1.78397H172V99.216H244.932Z" fill="black"/>
<path d="M309.263 99.216L342.576 1.78397H318.722L296.924 73.4171L275.127 1.78397H250.451L283.627 99.216H309.263Z" fill="black"/>
<path d="M389.68 101C419.566 101 438.073 80.2785 438.073 51.8723V49.1277C438.073 20.7215 419.566 0 389.68 0C359.931 0 341.424 20.7215 341.424 49.1277V51.8723C341.424 80.2785 359.931 101 389.68 101ZM389.68 81.9253C374.189 81.9253 365.415 70.2609 365.415 51.8723V49.1277C365.415 30.7391 373.915 19.0747 389.68 19.0747C405.445 19.0747 414.082 30.7391 414.082 49.1277V51.8723C414.082 70.2609 405.445 81.9253 389.68 81.9253Z" fill="black"/>
<path d="M509.449 99.216V80.4158H472.16V1.78397H448.992V99.216H509.449Z" fill="black"/>
<path d="M557.739 99.216L591.051 1.78397H567.198L545.4 73.4171L523.603 1.78397H498.927L532.103 99.216H557.739Z" fill="black"/>
<path d="M672 99.216V80.4158H621.825V58.7337H665.831V40.4823H621.825V20.5842H670.903V1.78397H599.068V99.216H672Z" fill="black"/>
<path d="M760.041 101C772.818 101 783.982 94.5532 788.421 85.5545L789.9 99.3883H799.584V49.5598H759.368V59.3644H788.824V63.7965C788.824 76.8245 780.216 90.7926 760.175 90.7926C740.807 90.7926 728.836 75.4814 728.836 53.5891V49.8285C728.836 27.9362 740.538 12.625 760.579 12.625C774.971 12.625 785.462 20.8178 787.883 34.9202H799.45C796.894 15.5798 781.83 2.41755 760.713 2.41755C734.62 2.41755 717 21.8923 717 49.8285V53.5891C717 81.9282 734.351 101 760.041 101Z" fill="black"/>
<path d="M825.676 99.3883V62.4535C825.676 47.4109 834.149 39.7553 846.658 39.7553C848.138 39.7553 849.079 39.7553 850.559 39.8896V29.145C849.214 28.8763 848.003 28.8763 846.927 28.8763C837.377 28.8763 829.711 34.2487 825.541 43.7846L825.407 30.488H814.916V99.3883H825.676Z" fill="black"/>
<path d="M888.117 101C908.158 101 920.936 87.3005 920.936 66.2141V63.6622C920.936 42.5758 908.158 28.8763 888.117 28.8763C868.077 28.8763 855.433 42.5758 855.433 63.6622V66.2141C855.433 87.3005 868.077 101 888.117 101ZM888.117 91.867C874.129 91.867 866.463 82.3311 866.463 66.2141V63.6622C866.463 47.5452 874.129 38.0093 888.117 38.0093C902.24 38.0093 909.907 47.5452 909.907 63.6622V66.2141C909.907 82.3311 902.24 91.867 888.117 91.867Z" fill="black"/>
<path d="M957.66 99.3883L973.666 45.262L989.941 99.3883H1001.37L1022.89 30.488H1012L995.725 86.629L979.046 30.488H968.421L952.011 86.2261L935.871 30.488H924.976L946.093 99.3883H957.66Z" fill="black"/>
<path d="M1062.78 101C1065.74 101 1070.04 100.328 1072.87 99.6569V90.5239C1070.58 91.1955 1066.81 91.867 1064.12 91.867C1055.11 91.867 1052.56 88.2407 1052.56 80.5851V39.0838H1072.33V30.488H1052.56V9.26729H1041.8V30.488H1027.94V39.0838H1041.8V82.0625C1041.8 94.6875 1049.06 101 1062.78 101Z" fill="black"/>
<path d="M1095.73 99.3883V60.3045C1095.73 46.6051 1103.53 38.1436 1115.23 38.1436C1126.53 38.1436 1131.37 44.9934 1131.37 57.3497V99.3883H1142V54.7979C1142 38.9495 1134.47 28.8763 1118.06 28.8763C1107.16 28.8763 1099.77 34.1144 1095.73 41.5013V0H1084.97V99.3883H1095.73Z" fill="black"/>
</svg>
