<svg width="10" height="11" viewBox="0 0 10 11" fill="none" xmlns="http://www.w3.org/2000/svg">
<path d="M4.6853 3.90554C3.84699 3.90554 3.16287 4.65187 3.16287 5.56641C3.16287 6.48094 3.84699 7.22727 4.6853 7.22727C5.5236 7.22727 6.20773 6.48094 6.20773 5.56641C6.20773 4.65187 5.5236 3.90554 4.6853 3.90554ZM9.25144 5.56641C9.25144 4.87864 9.25715 4.1971 9.22175 3.51057C9.18634 2.71316 9.0196 2.00546 8.48509 1.42235C7.94944 0.837992 7.30187 0.657328 6.57092 0.618703C5.94047 0.580078 5.31574 0.586308 4.68644 0.586308C4.05599 0.586308 3.43126 0.580078 2.80196 0.618703C2.07101 0.657328 1.42229 0.839238 0.887788 1.42235C0.352139 2.0067 0.186534 2.71316 0.151128 3.51057C0.115723 4.19834 0.121433 4.87988 0.121433 5.56641C0.121433 6.25293 0.115723 6.93572 0.151128 7.62224C0.186534 8.41965 0.353281 9.12736 0.887788 9.71047C1.42344 10.2948 2.07101 10.4755 2.80196 10.5141C3.4324 10.5527 4.05714 10.5465 4.68644 10.5465C5.31688 10.5465 5.94162 10.5527 6.57092 10.5141C7.30187 10.4755 7.95058 10.2936 8.48509 9.71047C9.02074 9.12611 9.18634 8.41965 9.22175 7.62224C9.2583 6.93572 9.25144 6.25418 9.25144 5.56641ZM4.6853 8.12187C3.389 8.12187 2.34283 6.98057 2.34283 5.56641C2.34283 4.15224 3.389 3.01094 4.6853 3.01094C5.98159 3.01094 7.02776 4.15224 7.02776 5.56641C7.02776 6.98057 5.98159 8.12187 4.6853 8.12187ZM7.1237 3.5031C6.82104 3.5031 6.57663 3.23646 6.57663 2.90628C6.57663 2.5761 6.82104 2.30947 7.1237 2.30947C7.42636 2.30947 7.67077 2.5761 7.67077 2.90628C7.67086 2.98469 7.65677 3.06234 7.62931 3.13479C7.60185 3.20724 7.56155 3.27308 7.51073 3.32851C7.45992 3.38395 7.39957 3.42791 7.33316 3.45787C7.26674 3.48783 7.19556 3.5032 7.1237 3.5031Z" fill="black"/>
</svg>
