<svg width="230" height="34" viewBox="0 0 230 34" fill="none" xmlns="http://www.w3.org/2000/svg">
<path d="M0 24.2995V33.4011H9.06118L24.1665 18.2234L39.2651 33.4011H48.3263V24.2919L24.1623 0L0 24.2995Z" fill="black"/>
<path d="M9.06118 6.07364H0V15.1828H9.06118V6.07364Z" fill="black"/>
<path d="M54.0345 33.4011V0.737125H62.176V33.4011H54.0345ZM60.4931 33.4011V26.4444H77.9588V33.4011H60.4931ZM60.4931 20.1328V13.3604H76.3214V20.1328H60.4931ZM60.4931 7.69377V0.737125H77.6859V7.69377H60.4931Z" fill="black"/>
<path d="M91.7076 33.4011L79.5635 0.737125H88.2509L97.3476 27.1355H93.6179L102.851 0.737125H111.357L99.076 33.4011H91.7076Z" fill="black"/>
<path d="M129.29 34C126.804 34 124.514 33.57 122.422 32.71C120.33 31.85 118.495 30.6522 116.919 29.1165C115.372 27.5809 114.159 25.7841 113.28 23.7263C112.401 21.6378 111.961 19.3957 111.961 17C111.961 14.6043 112.385 12.393 113.234 10.3659C114.114 8.30804 115.327 6.51129 116.873 4.97561C118.42 3.43992 120.239 2.25745 122.331 1.42818C124.423 0.5682 126.713 0.138209 129.199 0.138209C131.686 0.138209 133.975 0.5682 136.067 1.42818C138.159 2.25745 139.979 3.43992 141.525 4.97561C143.072 6.51129 144.269 8.30804 145.118 10.3659C145.998 12.4237 146.437 14.6504 146.437 17.0461C146.437 19.4417 145.998 21.6685 145.118 23.7263C144.269 25.7841 143.072 27.5962 141.525 29.1626C139.979 30.6983 138.159 31.8961 136.067 32.7561C134.005 33.5854 131.746 34 129.29 34ZM129.199 26.6287C131.019 26.6287 132.595 26.2295 133.93 25.4309C135.264 24.6323 136.295 23.5113 137.022 22.0678C137.75 20.6242 138.114 18.935 138.114 17C138.114 15.5872 137.902 14.2972 137.477 13.1301C137.083 11.963 136.492 10.9648 135.703 10.1355C134.915 9.27552 133.975 8.61517 132.883 8.15447C131.792 7.69377 130.564 7.46341 129.199 7.46341C127.38 7.46341 125.803 7.86269 124.469 8.66125C123.135 9.42909 122.104 10.5348 121.376 11.9783C120.648 13.4219 120.284 15.0958 120.284 17C120.284 18.4743 120.482 19.8103 120.876 21.0081C121.3 22.1752 121.907 23.1888 122.695 24.0488C123.483 24.878 124.423 25.523 125.515 25.9837C126.607 26.4137 127.835 26.6287 129.199 26.6287Z" fill="black"/>
<path d="M150.509 33.4011V0.737125H158.651V33.4011H150.509ZM156.968 33.4011V26.3062H172.523V33.4011H156.968Z" fill="black"/>
<path d="M183.03 33.4011L170.886 0.737125H179.573L188.67 27.1355H184.94L194.174 0.737125H202.679L190.398 33.4011H183.03Z" fill="black"/>
<path d="M206.076 33.4011V0.737125H214.217V33.4011H206.076ZM212.534 33.4011V26.4444H230V33.4011H212.534ZM212.534 20.1328V13.3604H228.363V20.1328H212.534ZM212.534 7.69377V0.737125H229.727V7.69377H212.534Z" fill="black"/>
</svg>
