<svg width="32" height="35" viewBox="0 0 32 35" fill="current" xmlns="http://www.w3.org/2000/svg">
<path d="M28.0065 18.1573C27.8013 17.9228 27.5848 17.6876 27.3569 17.4519C27.5161 17.2846 27.6701 17.1175 27.8189 16.9505C30.6291 13.7931 31.8152 10.6265 30.7162 8.72285C29.6624 6.89761 26.5277 6.35367 22.6033 7.11672C22.2168 7.19235 21.8324 7.27765 21.4501 7.37264C21.3769 7.12036 21.2991 6.86953 21.2166 6.62014C19.8853 2.60823 17.7348 -0.00138195 15.5367 5.49036e-07C13.429 0.000963046 11.3919 2.4449 10.0924 6.22561C9.9645 6.59858 9.84622 6.97466 9.73753 7.35385C9.48193 7.29114 9.22527 7.23321 8.96753 7.18007C4.82704 6.32996 1.49213 6.88985 0.395283 8.79462C-0.656464 10.6212 0.443461 13.6068 3.07017 16.6208C3.33067 16.919 3.59855 17.2105 3.8738 17.4954C3.54932 17.8296 3.24205 18.1637 2.95567 18.4959C0.392623 21.4673 -0.644406 24.4041 0.405643 26.2228C1.4901 28.1014 4.77808 28.7154 8.78007 27.9279C9.1044 27.8636 9.42694 27.7913 9.74768 27.7109C9.86517 28.1211 9.99406 28.5277 10.1343 28.9307C11.4281 32.6355 13.4538 35.0008 15.5541 35C17.7231 34.9987 19.8975 32.4575 21.2149 28.5972C21.3189 28.2922 21.4174 27.9753 21.5107 27.6492C21.9251 27.7522 22.342 27.8437 22.7617 27.9235C26.6176 28.6531 29.6786 28.0793 30.7267 26.2593C31.8091 24.3793 30.6931 21.2263 28.0065 18.1573ZM1.69096 9.54069C2.36621 8.3682 5.09162 7.91076 8.66658 8.6447C8.89506 8.69168 9.12745 8.74418 9.36374 8.80219C9.01472 10.3462 8.76845 11.9116 8.62654 13.4881C7.33662 14.3956 6.10678 15.3856 4.94475 16.4519C4.68872 16.1871 4.43953 15.9159 4.19718 15.6383L4.19729 15.6384C1.94667 13.056 1.05713 10.6414 1.69096 9.54069ZM8.4926 19.5648C7.59912 18.8883 6.76876 18.1952 6.01511 17.4981C6.76824 16.8053 7.59912 16.1145 8.49078 15.4398C8.45869 16.1272 8.44282 16.815 8.44314 17.5034C8.44362 18.1908 8.46011 18.8779 8.4926 19.5648ZM8.49153 26.4609C6.97474 26.7981 5.40884 26.8534 3.87205 26.6239C3.45077 26.5911 3.04069 26.4722 2.66715 26.2747C2.29361 26.0771 1.96455 25.8051 1.70031 25.4753C1.06319 24.3717 1.89589 22.0138 4.08786 19.4724C4.36344 19.1539 4.64805 18.8438 4.9417 18.5419C6.10392 19.6138 7.33575 20.6077 8.62915 21.517C8.773 23.1137 9.02216 24.6991 9.37502 26.263C9.08221 26.3362 8.78771 26.4022 8.49153 26.4609ZM20.9185 12.392C20.3315 12.0222 19.7373 11.6642 19.1359 11.3181C18.5441 10.9775 17.9451 10.6496 17.339 10.3345C18.3768 9.8982 19.3969 9.52554 20.3816 9.22186C20.6138 10.2689 20.793 11.3269 20.9185 12.392ZM11.5064 6.7116C12.6198 3.47211 14.2672 1.49569 15.5375 1.49514C16.8904 1.4945 18.6482 3.62709 19.7976 7.09098C19.8722 7.31679 19.9428 7.54387 20.0093 7.77222C18.4993 8.24057 17.0219 8.80835 15.5868 9.47181C14.1577 8.80054 12.6849 8.22644 11.1786 7.75342C11.2793 7.40352 11.3885 7.05624 11.5064 6.7116ZM10.8057 9.20322C11.8329 9.52661 12.8432 9.90159 13.8326 10.3267C12.6066 10.9594 11.4124 11.6486 10.2498 12.3942C10.3902 11.2777 10.5771 10.2079 10.8057 9.20322ZM10.2523 22.6094C10.8321 22.9805 11.4203 23.3379 12.0171 23.6816C12.6257 24.0321 13.2425 24.3678 13.8674 24.6889C12.8704 25.1287 11.8515 25.5171 10.8147 25.8525C10.5834 24.8338 10.3945 23.7453 10.2523 22.6094ZM19.7997 28.114C19.3342 29.5965 18.5997 30.9806 17.6331 32.1972L17.633 32.1973C17.3941 32.5458 17.0863 32.8416 16.7286 33.0664C16.3709 33.2913 15.9709 33.4404 15.5533 33.5045C14.2789 33.5053 12.6524 31.6058 11.5459 28.4375C11.4156 28.0629 11.2957 27.6849 11.1863 27.3035C12.6999 26.8152 14.1786 26.2249 15.6123 25.5365C17.0592 26.2043 18.5484 26.7763 20.0702 27.2489C19.9871 27.5394 19.8969 27.8277 19.7997 28.114ZM20.4337 25.7966C19.4375 25.4886 18.4026 25.1097 17.3499 24.667C17.9434 24.3547 18.5411 24.0248 19.1432 23.6775C19.761 23.3207 20.363 22.955 20.9493 22.5804C20.8326 23.6606 20.6604 24.7341 20.4337 25.7967V25.7966ZM21.2147 17.497C21.216 18.5597 21.1828 19.6216 21.1151 20.6827C20.2529 21.2662 19.3427 21.836 18.3956 22.3827C17.4525 22.9272 16.518 23.4277 15.6013 23.8805C14.6367 23.4183 13.6907 22.9201 12.7633 22.386C11.8411 21.8552 10.94 21.29 10.0601 20.6903C9.97966 19.6296 9.93914 18.5669 9.93853 17.5023L9.93874 17.5026C9.93801 16.4388 9.97764 15.376 10.0576 14.3144C10.9196 13.7258 11.8232 13.1565 12.7575 12.6171C13.696 12.0751 14.6422 11.5768 15.5832 11.1252C16.5359 11.5883 17.4715 12.0845 18.3899 12.6139C19.3114 13.1435 20.215 13.7028 21.1006 14.2916C21.1767 15.3584 21.2147 16.4269 21.2148 17.497H21.2147ZM22.8889 8.58453C26.2512 7.93052 28.7864 8.37047 29.4215 9.47041C30.0981 10.6422 29.1284 13.2303 26.7023 15.9565L26.7022 15.9566C26.5682 16.107 26.4291 16.2581 26.285 16.4097C25.1028 15.3411 23.8493 14.3543 22.5331 13.456C22.4002 11.8967 22.1632 10.348 21.8235 8.82036C22.1856 8.73129 22.5407 8.65268 22.8889 8.58453ZM22.6616 15.3827C23.5495 16.031 24.4031 16.7248 25.219 17.4614C24.4067 18.2102 23.5558 18.916 22.6698 19.576C22.6969 18.8831 22.7102 18.1898 22.7098 17.4963C22.7095 16.7916 22.6934 16.0871 22.6616 15.3827ZM29.4308 25.513C28.7947 26.6176 26.337 27.0781 23.0394 26.4543C22.6615 26.3829 22.2738 26.298 21.8761 26.1995C22.2076 24.6522 22.4342 23.0843 22.5542 21.5064C23.8682 20.5925 25.1178 19.5892 26.2941 18.5037C26.4999 18.7175 26.6957 18.9303 26.8814 19.1422V19.1421C27.9333 20.2858 28.7656 21.6133 29.3368 23.0584C29.5195 23.4394 29.622 23.8538 29.6382 24.276C29.6544 24.6982 29.5838 25.1192 29.4308 25.513ZM13.9983 14.7663C13.463 15.0754 13.0313 15.5363 12.7579 16.0907C12.4845 16.6451 12.3816 17.2681 12.4623 17.8809C12.543 18.4938 12.8036 19.069 13.2112 19.5337C13.6188 19.9985 14.155 20.3319 14.7521 20.4919C15.3492 20.6518 15.9803 20.6312 16.5657 20.4324C17.151 20.2337 17.6643 19.8659 18.0406 19.3755C18.4168 18.8851 18.6392 18.2941 18.6796 17.6772C18.72 17.0604 18.5766 16.4455 18.2675 15.9101C17.853 15.1924 17.1704 14.6687 16.3698 14.4542C15.5692 14.2397 14.7162 14.352 13.9983 14.7663L13.9983 14.7663Z" fill="black"/>
</svg>
