<svg width="30" height="30" viewBox="0 0 30 30" fill="none" xmlns="http://www.w3.org/2000/svg">
<path d="M7.52204 5.45054L10.9011 8.81489L8.81489 10.9011L5.45054 7.52204L2.08619 10.9011L0 8.81489L3.37904 5.45054L0 2.08619L2.08619 0L5.45054 3.37904L8.81489 0L10.9011 2.08619L7.52204 5.45054ZM30 21.1851L27.9138 19.0989L24.5495 22.478L21.1851 19.0989L19.0989 21.1851L22.478 24.5495L19.0989 27.9138L21.1851 30L24.5495 26.621L27.9138 30L30 27.9138L26.621 24.5495L30 21.1851ZM27.3408 7.40451L22.6102 13.5309L20.2889 11.665L22.0078 9.46131C19.8154 9.90668 17.7702 10.8963 16.0603 12.3391C14.3505 13.7819 13.031 15.6316 12.2233 17.7179C13.502 18.6401 14.4092 19.9888 14.781 21.5209C15.1529 23.0529 14.965 24.6674 14.2513 26.0732C13.5376 27.4789 12.345 28.5833 10.8887 29.1872C9.43237 29.7911 7.8082 29.8546 6.30915 29.3664C4.8101 28.8782 3.53485 27.8704 2.71345 26.5248C1.89204 25.1791 1.57855 23.5842 1.82953 22.0278C2.0805 20.4713 2.87942 19.0558 4.08217 18.0366C5.28491 17.0173 6.81231 16.4614 8.38883 16.4691C8.77374 16.4707 9.15756 16.5101 9.53477 16.5867C10.5526 14.0607 12.1778 11.8247 14.2664 10.077C16.355 8.32925 18.8424 7.12367 21.5083 6.56709L19.4074 4.98041L21.2733 2.65916L27.3408 7.40451ZM12.0617 23.0803C12.0617 22.3539 11.8463 21.6438 11.4427 21.0398C11.0391 20.4358 10.4655 19.965 9.79438 19.687C9.12325 19.409 8.38476 19.3363 7.67229 19.478C6.95983 19.6197 6.30538 19.9695 5.79172 20.4832C5.27806 20.9969 4.92826 21.6513 4.78654 22.3638C4.64482 23.0762 4.71755 23.8147 4.99555 24.4859C5.27354 25.157 5.7443 25.7306 6.3483 26.1342C6.9523 26.5378 7.66241 26.7532 8.38883 26.7532C9.36294 26.7532 10.2971 26.3662 10.9859 25.6774C11.6747 24.9886 12.0617 24.0544 12.0617 23.0803Z" fill="black"/>
</svg>
