<svg width="25" height="25" viewBox="0 0 25 25" fill="none" xmlns="http://www.w3.org/2000/svg">
<path d="M6.26836 4.54212L9.08423 7.34574L7.34574 9.08423L4.54212 6.26836L1.73849 9.08423L0 7.34574L2.81587 4.54212L0 1.73849L1.73849 0L4.54212 2.81587L7.34574 0L9.08423 1.73849L6.26836 4.54212ZM25 17.6543L23.2615 15.9158L20.4579 18.7316L17.6543 15.9158L15.9158 17.6543L18.7316 20.4579L15.9158 23.2615L17.6543 25L20.4579 22.1841L23.2615 25L25 23.2615L22.1841 20.4579L25 17.6543ZM22.784 6.17042L18.8418 11.2757L16.9074 9.72086L18.3399 7.88443C16.5128 8.25556 14.8085 9.08025 13.3836 10.2826C11.9588 11.4849 10.8592 13.0263 10.1861 14.7649C11.2517 15.5334 12.0076 16.6573 12.3175 17.9341C12.6274 19.2108 12.4708 20.5562 11.8761 21.7276C11.2813 22.8991 10.2875 23.8194 9.0739 24.3227C7.86031 24.8259 6.50684 24.8789 5.25763 24.472C4.00842 24.0652 2.94571 23.2254 2.26121 22.104C1.5767 20.9826 1.31546 19.6535 1.5246 18.3565C1.73375 17.0595 2.39952 15.8799 3.40181 15.0305C4.4041 14.1811 5.67693 13.7178 6.9907 13.7243C7.31145 13.7256 7.6313 13.7584 7.94564 13.8222C8.79385 11.7172 10.1482 9.85394 11.8887 8.39749C13.6292 6.94104 15.702 5.93639 17.9236 5.47258L16.1729 4.15034L17.7277 2.21596L22.784 6.17042ZM10.0514 19.2336C10.0514 18.6282 9.87191 18.0365 9.5356 17.5331C9.19928 17.0298 8.72126 16.6375 8.16199 16.4059C7.60271 16.1742 6.9873 16.1136 6.39358 16.2317C5.79986 16.3498 5.25449 16.6413 4.82644 17.0693C4.39839 17.4974 4.10688 18.0428 3.98878 18.6365C3.87068 19.2302 3.9313 19.8456 4.16295 20.4049C4.39461 20.9642 4.78691 21.4422 5.29025 21.7785C5.79358 22.1148 6.38534 22.2943 6.9907 22.2943C7.80245 22.2943 8.58096 21.9719 9.15496 21.3979C9.72895 20.8239 10.0514 20.0454 10.0514 19.2336Z" fill="white"/>
</svg>
